<?xml version="1.0" standalone="no"?>
<!DOCTYPE svg PUBLIC "-//W3C//DTD SVG 20010904//EN"
 "http://www.w3.org/TR/2001/REC-SVG-20010904/DTD/svg10.dtd">
<svg version="1.0" xmlns="http://www.w3.org/2000/svg"
 width="16.000000pt" height="16.000000pt" viewBox="0 0 16.000000 16.000000"
 preserveAspectRatio="xMidYMid meet">
<metadata>
Created by potrace 1.11, written by Peter Selinger 2001-2013
</metadata>
<g transform="translate(0.000000,16.000000) scale(0.002941,-0.002941)"
fill="#000000" stroke="none">
<path d="M2948 5203 c-52 -23 -58 -29 -73 -72 -25 -77 -71 -110 -235 -169
-206 -74 -381 -118 -1315 -333 -192 -44 -397 -91 -455 -104 -58 -13 -134 -29
-170 -36 -82 -14 -115 -33 -140 -83 l-20 -40 63 -23 c353 -131 558 -355 691
-756 48 -147 111 -442 141 -667 3 -25 8 -52 10 -60 2 -8 6 -42 10 -75 3 -33 8
-71 10 -85 2 -14 7 -43 9 -65 6 -47 34 -272 41 -330 89 -715 224 -1117 474
-1404 174 -201 367 -347 571 -434 47 -19 150 -54 229 -77 157 -45 211 -67 254
-105 36 -32 65 -97 73 -167 l6 -55 42 15 c56 21 72 37 113 109 50 91 143 176
332 307 201 140 305 227 407 343 143 165 329 435 417 608 54 107 132 312 142
375 4 25 13 72 21 105 7 33 27 133 44 222 l31 161 3 449 c2 246 6 459 9 473 3
14 8 66 12 115 4 50 9 104 10 120 2 17 6 64 9 105 4 41 9 86 11 100 2 14 6 61
10 105 4 44 8 92 10 107 2 14 6 59 10 100 10 115 13 128 26 144 6 8 10 16 8
18 -5 4 -313 173 -404 221 -38 21 -113 61 -165 90 -52 29 -124 68 -160 87
-338 182 -469 256 -615 346 -183 114 -363 247 -412 306 l-28 34 -57 -25z"/>
</g>
</svg>
